<?xml version="1.0" encoding="iso-8859-1"?>
<!-- Generator: Adobe Illustrator 19.1.0, SVG Export Plug-In . SVG Version: 6.00 Build 0)  -->
<svg version="1.1" id="Capa_1" xmlns="http://www.w3.org/2000/svg" xmlns:xlink="http://www.w3.org/1999/xlink" x="0px" y="0px"
	 viewBox="0 0 513.321 513.321" style="enable-background:new 0 0 513.321 513.321;" xml:space="preserve">
<g>
	<g>
		<g>
			<path d="M269.493,295.159c32.082-23.527,51.332-62.026,51.332-102.664c0-70.581-57.749-128.33-128.33-128.33
				s-128.33,57.749-128.33,128.33c0,40.638,19.249,79.137,51.332,102.664C53.471,322.963,8.555,380.712,0,449.155h42.777
				c10.694-72.72,74.859-128.33,149.718-128.33s139.024,55.61,149.718,128.33h42.777
				C376.435,380.712,331.519,322.964,269.493,295.159L269.493,295.159z M192.495,278.048c-47.055,0-85.553-38.499-85.553-85.553
				s38.499-85.553,85.553-85.553s85.553,38.499,85.553,85.553S239.55,278.048,192.495,278.048L192.495,278.048z"/>
			<path d="M442.739,290.881c17.11-21.388,27.805-49.193,27.805-76.998c0-76.998-68.443-136.885-143.302-128.33
				c6.416,6.416,10.694,14.972,14.972,23.527c4.278,6.416,6.416,12.833,8.555,19.249c49.193,8.555,76.998,44.916,76.998,85.553
				c0,27.805-14.972,53.471-34.221,68.443c-6.416,4.278-8.555,10.694-8.555,17.11c0,10.694,6.416,19.249,17.11,21.388
				c38.499,8.555,68.443,42.777,68.443,83.414h42.777C513.32,357.185,485.515,312.27,442.739,290.881L442.739,290.881z"/>
		</g>
	</g>
</g>
<g>
</g>
<g>
</g>
<g>
</g>
<g>
</g>
<g>
</g>
<g>
</g>
<g>
</g>
<g>
</g>
<g>
</g>
<g>
</g>
<g>
</g>
<g>
</g>
<g>
</g>
<g>
</g>
<g>
</g>
</svg>
